# xmcd CD database file
#
# Track frame offsets:
#	150
#	17682
#	32112
#	42758
#	63703
#	75050
#	92122
#	107730
#	122728
#
# Disc length: 1810 seconds
#
# Revision: 1
# Processed by: cddbd v1.5.2PL0 Copyright (c) Steve Scherf et al.
# Submitted via: CDex 1.51
#
DISCID=67071009
DTITLE=Sixpack Stompers - Sixpack Stompers
DYEAR=1900
DGENRE=Jazz
TTITLE0=Shine
TTITLE1=Fidgety Feet
TTITLE2=Use it and you´ll feel better
TTITLE3=Oh, you beautiful doll!
TTITLE4=That´s a Plenty
TTITLE5=Indiana
TTITLE6=Sugar Foot Stomp
TTITLE7=Oh when the Saints go marching in
TTITLE8=Tailgate
EXTD=
EXTT0=
EXTT1=
EXTT2=
EXTT3=
EXTT4=
EXTT5=
EXTT6=
EXTT7=
EXTT8=
PLAYORDER=
